<?xml version="1.0" standalone="no"?>
<!DOCTYPE svg PUBLIC "-//W3C//DTD SVG 20010904//EN"
 "http://www.w3.org/TR/2001/REC-SVG-20010904/DTD/svg10.dtd">
<svg version="1.0" xmlns="http://www.w3.org/2000/svg"
 width="500.000000pt" height="500.000000pt" viewBox="0 0 500.000000 500.000000"
 preserveAspectRatio="xMidYMid meet">

<g transform="translate(0.000000,500.000000) scale(0.100000,-0.100000)"
fill="#000000" stroke="none">
<path d="M1810 4610 c0 -43 12 -150 26 -236 14 -87 23 -168 20 -180 -4 -13
-17 -31 -30 -40 -21 -13 -30 -13 -67 -2 -48 14 -98 59 -174 158 -50 64 -129
130 -142 117 -3 -4 -8 -31 -11 -61 -7 -87 41 -220 123 -335 18 -26 40 -62 49
-80 16 -30 16 -34 -1 -60 -10 -16 -76 -93 -148 -171 -168 -184 -233 -267 -245
-310 -6 -19 -10 -99 -10 -177 l0 -142 -46 -88 c-39 -74 -217 -372 -449 -753
-68 -113 -177 -312 -210 -386 -108 -240 -101 -364 30 -502 146 -155 413 -264
650 -266 101 -1 115 1 166 26 79 39 149 114 199 214 23 46 44 84 46 84 2 0 15
-21 30 -48 166 -287 451 -599 675 -737 115 -71 299 -122 527 -146 145 -15 411
-7 515 16 l78 17 67 -73 c37 -40 89 -90 117 -112 l49 -39 459 3 c252 2 464 7
470 11 7 4 7 231 -2 795 -6 433 -15 1017 -18 1296 l-6 508 -92 107 c-156 181
-300 309 -515 458 -168 116 -209 142 -380 239 -395 224 -850 407 -1208 484
-51 11 -116 33 -143 48 -64 35 -156 132 -243 258 -84 122 -134 185 -147 185
-5 0 -9 -36 -9 -80z m774 -2621 c113 -122 217 -299 378 -643 103 -221 266
-541 326 -640 23 -37 42 -71 42 -76 0 -12 -110 -40 -207 -51 -159 -20 -384 3
-564 59 -173 53 -326 149 -457 286 -115 120 -205 255 -381 568 l-32 57 39 26
c41 27 130 60 322 119 190 59 300 139 395 290 27 42 54 76 61 76 7 0 42 -32
78 -71z"/>
</g>
</svg>
